<svg width="24" height="24" viewBox="0 0 24 24" fill="none" xmlns="http://www.w3.org/2000/svg">
<path fill-rule="evenodd" clip-rule="evenodd" d="M21.5245 4.02859C22.8085 4.90973 23.7822 6.21945 23.7822 7.97145C23.7822 10.5394 22.2411 12.7029 20.0999 14.1686C17.9519 15.6394 15.0736 16.5086 12.0222 16.5086H12.0016C11.3081 16.5088 10.6238 16.3491 10.0021 16.0418C9.38039 15.7344 8.83794 15.2878 8.41698 14.7366C7.99601 14.1855 7.70788 13.5446 7.57499 12.8639C7.44209 12.1832 7.46803 11.4811 7.65078 10.812C6.85465 11.097 6.09733 11.4806 5.39649 11.9537C3.70964 13.1074 2.83364 14.568 2.83364 16.0286C2.83364 16.6954 3.16792 17.2972 3.97535 17.8526C4.80849 18.4234 6.03935 18.8554 7.49306 19.0903C8.93306 19.3217 10.4982 19.3474 11.9296 19.1709C13.3799 18.9943 14.5936 18.6274 15.3891 18.1492C15.6812 17.9777 16.0293 17.9284 16.3576 18.0122C16.6859 18.0959 16.9678 18.3058 17.1422 18.5962C17.3166 18.8867 17.3693 19.2343 17.2888 19.5634C17.2083 19.8925 17.0012 20.1765 16.7125 20.3537C15.4953 21.0857 13.8891 21.5229 12.2416 21.7252C10.5259 21.9296 8.79026 21.8973 7.08335 21.6292C5.41706 21.36 3.77649 20.8354 2.51992 19.9714C1.23421 19.0903 0.262207 17.7789 0.262207 16.0286C0.262207 13.4606 1.80335 11.2972 3.94449 9.83145C6.08221 8.36745 8.94335 7.50002 11.9776 7.49145H12.0462C12.7374 7.49809 13.4179 7.66359 14.035 7.97515C14.652 8.28672 15.1892 8.736 15.6049 9.28828C16.0207 9.84055 16.3039 10.481 16.4326 11.1602C16.5613 11.8394 16.5322 12.5391 16.3474 13.2052C17.2045 12.8966 17.9811 12.504 18.6479 12.0463C20.3348 10.8926 21.2108 9.43202 21.2108 7.97145C21.2108 7.30459 20.8765 6.70288 20.0691 6.14745C19.2376 5.57659 18.0051 5.14459 16.5513 4.90973C15.0832 4.67977 13.5903 4.65266 12.1148 4.82916C10.6662 5.00573 9.45078 5.37259 8.65535 5.85088C8.36317 6.02237 8.01511 6.07161 7.68683 5.98789C7.35854 5.90417 7.07657 5.69426 6.9022 5.40379C6.72782 5.11332 6.67515 4.76577 6.75561 4.43667C6.83608 4.10758 7.04319 3.82354 7.33192 3.64631C8.54906 2.91431 10.1554 2.47716 11.8045 2.27488C13.5196 2.06969 15.2548 2.10199 16.9611 2.37088C18.6291 2.64002 20.2679 3.16459 21.5245 4.02859ZM11.9879 10.0629H12.0068C12.5197 10.0654 13.0107 10.2712 13.3721 10.6352C13.7335 10.9993 13.9357 11.4918 13.9345 12.0047C13.9332 12.5177 13.7286 13.0092 13.3654 13.3714C13.0023 13.7337 12.5103 13.9371 11.9973 13.9371C11.4844 13.9371 10.9924 13.7337 10.6293 13.3714C10.2661 13.0092 10.0615 12.5177 10.0602 12.0047C10.059 11.4918 10.2612 10.9993 10.6226 10.6352C10.984 10.2712 11.475 10.0654 11.9879 10.0629Z" fill="#DB00FF"/>
</svg>
